<svg width="1200" height="630" xmlns="http://www.w3.org/2000/svg">
  <defs>
    <linearGradient id="bg" x1="0%" y1="0%" x2="100%" y2="100%">
      <stop offset="0%" style="stop-color:#1a1a2e"/>
      <stop offset="100%" style="stop-color:#16213e"/>
    </linearGradient>
  </defs>
  <rect width="1200" height="630" fill="url(#bg)"/>
  <!-- Grid pattern -->
  <g opacity="0.1" stroke="#f97316" stroke-width="1">
    <line x1="0" y1="0" x2="0" y2="630"/><line x1="60" y1="0" x2="60" y2="630"/>
    <line x1="120" y1="0" x2="120" y2="630"/><line x1="180" y1="0" x2="180" y2="630"/>
    <line x1="240" y1="0" x2="240" y2="630"/><line x1="300" y1="0" x2="300" y2="630"/>
    <line x1="0" y1="0" x2="1200" y2="0"/><line x1="0" y1="60" x2="1200" y2="60"/>
    <line x1="0" y1="120" x2="1200" y2="120"/><line x1="0" y1="180" x2="1200" y2="180"/>
  </g>
  <!-- Orange accent bar -->
  <rect x="0" y="0" width="1200" height="6" fill="#f97316"/>
  <!-- Logo text -->
  <text x="600" y="260" font-family="Arial, sans-serif" font-size="72" font-weight="bold" fill="#ffffff" text-anchor="middle">Millioncoders</text>
  <!-- Tagline -->
  <text x="600" y="340" font-family="Arial, sans-serif" font-size="32" fill="#f97316" text-anchor="middle">Master Programming Through Practice</text>
  <!-- Subtitle -->
  <text x="600" y="420" font-family="Arial, sans-serif" font-size="22" fill="#94a3b8" text-anchor="middle">50+ Languages · Hands-on Exercises · Certificates</text>
  <!-- Bottom bar -->
  <rect x="0" y="624" width="1200" height="6" fill="#f97316"/>
</svg>
